<?xml version="1.0" encoding="UTF-8"?>
<!DOCTYPE svg PUBLIC "-//W3C//DTD SVG 1.1//EN" "http://www.w3.org/Graphics/SVG/1.1/DTD/svg11.dtd">
<svg xmlns="http://www.w3.org/2000/svg" version="1.1" width="192px" height="192px" style="shape-rendering:geometricPrecision; text-rendering:geometricPrecision; image-rendering:optimizeQuality; fill-rule:evenodd; clip-rule:evenodd" xmlns:xlink="http://www.w3.org/1999/xlink">
<g><path style="opacity:0.973" fill="#ffac32" d="M 109.5,9.5 C 114.133,8.45819 117.299,10.1249 119,14.5C 124.468,33.2377 130.135,51.9043 136,70.5C 152.352,77.3795 168.852,83.8795 185.5,90C 188.19,94.604 187.19,98.2706 182.5,101C 166.93,106.704 151.43,112.537 136,118.5C 130.129,137.779 124.462,157.112 119,176.5C 114.522,184.401 110.189,184.401 106,176.5C 100.532,157.097 94.8651,137.763 89,118.5C 73.5896,112.55 58.0896,106.716 42.5,101C 39.3171,99.9817 37.9838,97.815 38.5,94.5C 38.6667,93.1667 38.8333,91.8333 39,90.5C 41.087,89.2062 43.2537,88.0395 45.5,87C 60.3173,82.2839 74.8173,76.7839 89,70.5C 94.8706,51.8887 100.537,33.2221 106,14.5C 106.697,12.4156 107.864,10.7489 109.5,9.5 Z"/></g>
<g><path style="opacity:0.94" fill="#ffcc4c" d="M 26.5,11.5 C 29.1873,11.3359 31.854,11.5026 34.5,12C 37.2369,16.5306 39.4036,21.3639 41,26.5C 45.7325,28.8568 50.5658,31.0234 55.5,33C 58.0267,37.1265 57.3601,40.7931 53.5,44C 49.3853,45.2048 45.3853,46.7048 41.5,48.5C 39.5156,52.7735 37.6822,57.1068 36,61.5C 32.3333,65.5 28.6667,65.5 25,61.5C 23.1944,56.8993 21.6944,52.2326 20.5,47.5C 15.7037,46.5127 11.037,45.0127 6.5,43C 5.02026,41.7009 4.3536,40.0342 4.5,38C 4.25563,35.6154 5.08896,33.7821 7,32.5C 11.3427,30.3311 15.8427,28.6645 20.5,27.5C 22.195,22.0539 24.195,16.7206 26.5,11.5 Z"/></g>
<g><path style="opacity:0.937" fill="#ffcb4c" d="M 50.5,121.5 C 53.6021,121.154 56.4355,121.821 59,123.5C 60.9385,129.814 62.7718,136.147 64.5,142.5C 68.3853,144.295 72.3853,145.795 76.5,147C 80.9019,150.008 81.5686,153.675 78.5,158C 73.7908,160.17 69.1241,162.336 64.5,164.5C 62.9779,171.236 61.1446,177.902 59,184.5C 54.9564,188.652 51.2897,188.319 48,183.5C 46.1801,177.221 44.5134,170.888 43,164.5C 38.5524,162.344 34.0524,160.177 29.5,158C 25.6327,154.751 25.6327,151.418 29.5,148C 34.1754,146.578 38.6754,144.745 43,142.5C 44.4459,134.987 46.9459,127.987 50.5,121.5 Z"/></g>
</svg>
